<svg width="1441" height="210" viewBox="0 0 1441 210" fill="none" xmlns="http://www.w3.org/2000/svg">
<rect width="1440" height="209" transform="translate(0.5 0.641846)" fill="black"/>
<path d="M671.144 86.7402L664.628 93.4038V102.754H659.5V66.6418H664.628V86.8477L684.071 66.6418H689.947L674.67 82.871L691.015 102.754H685.032L671.144 86.7402Z" fill="white"/>
<path d="M728.405 99.8526L730.435 95.9834C732.785 97.5956 736.418 98.7778 739.943 98.7778C744.537 98.7778 746.353 97.3806 746.353 95.0161C746.353 88.8899 729.153 94.1563 729.153 83.301C729.153 78.357 733.533 75.1327 740.477 75.1327C744.003 75.1327 748.062 76.1 750.412 77.6047L748.276 81.4739C745.819 79.8617 743.148 79.3243 740.477 79.3243C736.204 79.3243 734.067 80.9365 734.067 83.0861C734.067 89.5347 751.267 84.2683 751.267 94.9086C751.267 99.8526 746.78 102.969 739.516 102.969C735.136 103.077 730.649 101.68 728.405 99.8526Z" fill="white"/>
<path d="M781.5 86.2027V102.754H776.799V99.1001C775.197 101.572 772.099 102.969 767.826 102.969C761.63 102.969 757.784 99.6374 757.784 94.9084C757.784 90.5018 760.561 86.9551 768.68 86.9551H776.479V85.9878C776.479 81.7961 774.022 79.4316 769.215 79.4316C766.01 79.4316 762.698 80.6139 760.561 82.3335L758.531 78.5718C761.309 76.3148 765.369 75.025 769.749 75.025C777.334 75.1325 781.5 78.7867 781.5 86.2027ZM776.586 94.371V90.5018H769.001C764.087 90.5018 762.698 92.4364 762.698 94.6935C762.698 97.3804 764.941 99.1001 768.68 99.1001C772.419 99.2075 775.411 97.5954 776.586 94.371Z" fill="white"/>
<path d="M712.595 95.5537V102.862L715.693 101.035V93.7266L712.595 95.5537Z" fill="white"/>
<path d="M721.141 86.6328L708.428 79.2168L701.377 75.1327L694.433 87.2777L694.54 98.6703L707.146 106.086L708.428 105.334V94.5862L714.09 84.5907L719.859 87.9226V98.6703L721.141 97.918V86.6328Z" fill="white"/>
<path d="M538.877 172.714C543.653 172.714 547.373 168.97 547.373 164.194C547.373 159.418 543.749 155.77 538.925 155.77C534.101 155.77 530.429 159.514 530.429 164.242C530.429 168.97 534.101 172.714 538.877 172.714ZM538.877 171.634C534.701 171.634 531.557 168.37 531.557 164.242C531.557 160.114 534.701 156.85 538.925 156.85C543.149 156.85 546.245 160.018 546.245 164.194C546.245 168.37 543.053 171.634 538.877 171.634ZM539.141 169.186C540.845 169.186 542.261 168.418 543.029 167.218L541.661 166.258C541.061 167.146 540.149 167.554 539.117 167.554C537.293 167.554 535.901 166.258 535.901 164.242C535.901 162.226 537.293 160.93 539.117 160.93C540.149 160.93 541.061 161.338 541.661 162.226L543.029 161.242C542.261 160.066 540.845 159.298 539.141 159.298C536.189 159.298 534.077 161.338 534.077 164.242C534.077 167.146 536.189 169.186 539.141 169.186ZM559.309 170.554L564.445 165.61C566.725 163.426 567.205 161.962 567.205 160.33C567.205 157.45 564.949 155.65 561.445 155.65C558.829 155.65 556.597 156.586 555.301 158.194L556.933 159.61C557.965 158.362 559.429 157.786 561.229 157.786C563.581 157.786 564.805 158.842 564.805 160.57C564.805 161.626 564.469 162.682 562.693 164.41L555.853 171.01V172.642H567.925V170.554H559.309ZM576.692 172.834C580.604 172.834 583.532 169.714 583.532 164.242C583.532 158.77 580.604 155.65 576.692 155.65C572.756 155.65 569.828 158.77 569.828 164.242C569.828 169.714 572.756 172.834 576.692 172.834ZM576.692 170.698C574.052 170.698 572.228 168.538 572.228 164.242C572.228 159.946 574.052 157.786 576.692 157.786C579.308 157.786 581.132 159.946 581.132 164.242C581.132 168.538 579.308 170.698 576.692 170.698ZM588.957 170.554L594.093 165.61C596.373 163.426 596.853 161.962 596.853 160.33C596.853 157.45 594.597 155.65 591.093 155.65C588.477 155.65 586.245 156.586 584.949 158.194L586.581 159.61C587.613 158.362 589.077 157.786 590.877 157.786C593.229 157.786 594.453 158.842 594.453 160.57C594.453 161.626 594.117 162.682 592.341 164.41L585.501 171.01V172.642H597.573V170.554H588.957ZM606.34 172.834C610.252 172.834 613.18 169.714 613.18 164.242C613.18 158.77 610.252 155.65 606.34 155.65C602.404 155.65 599.476 158.77 599.476 164.242C599.476 169.714 602.404 172.834 606.34 172.834ZM606.34 170.698C603.7 170.698 601.876 168.538 601.876 164.242C601.876 159.946 603.7 157.786 606.34 157.786C608.956 157.786 610.78 159.946 610.78 164.242C610.78 168.538 608.956 170.698 606.34 170.698ZM635.201 172.642H638.009L630.377 163.402L637.553 155.842H634.817L625.697 165.226V155.842H623.297V172.642H625.697V168.298L628.769 165.178L635.201 172.642ZM644.539 159.802C642.499 159.802 640.603 160.378 639.283 161.434L640.243 163.162C641.227 162.322 642.763 161.794 644.275 161.794C646.555 161.794 647.683 162.922 647.683 164.866V165.322H644.035C640.243 165.322 638.923 167.002 638.923 169.042C638.923 171.25 640.747 172.786 643.627 172.786C645.619 172.786 647.035 172.114 647.803 170.962V172.642H649.987V164.962C649.987 161.482 648.019 159.802 644.539 159.802ZM644.011 171.01C642.259 171.01 641.203 170.218 641.203 168.946C641.203 167.866 641.851 166.978 644.131 166.978H647.683V168.754C647.107 170.218 645.739 171.01 644.011 171.01ZM657.898 172.786C661.282 172.786 663.394 171.322 663.394 169.018C663.394 164.074 655.33 166.522 655.33 163.522C655.33 162.514 656.314 161.77 658.33 161.77C659.578 161.77 660.85 162.034 662.002 162.778L662.986 160.954C661.882 160.234 660.01 159.802 658.354 159.802C655.09 159.802 653.05 161.338 653.05 163.618C653.05 168.682 661.09 166.21 661.09 169.066C661.09 170.146 660.202 170.794 658.066 170.794C656.41 170.794 654.682 170.242 653.602 169.474L652.642 171.298C653.698 172.138 655.786 172.786 657.898 172.786ZM670.906 159.802C668.866 159.802 666.97 160.378 665.65 161.434L666.61 163.162C667.594 162.322 669.13 161.794 670.642 161.794C672.922 161.794 674.05 162.922 674.05 164.866V165.322H670.402C666.61 165.322 665.29 167.002 665.29 169.042C665.29 171.25 667.114 172.786 669.994 172.786C671.986 172.786 673.402 172.114 674.17 170.962V172.642H676.354V164.962C676.354 161.482 674.386 159.802 670.906 159.802ZM670.378 171.01C668.626 171.01 667.57 170.218 667.57 168.946C667.57 167.866 668.218 166.978 670.498 166.978H674.05V168.754C673.474 170.218 672.106 171.01 670.378 171.01ZM681.17 172.786C682.034 172.786 682.754 172.09 682.754 171.13C682.754 170.17 682.034 169.498 681.17 169.498C680.282 169.498 679.538 170.17 679.538 171.13C679.538 172.09 680.282 172.786 681.17 172.786ZM705.388 172.642H707.908L700.276 155.842H697.9L690.292 172.642H692.764L694.612 168.442H703.54L705.388 172.642ZM695.452 166.522L699.076 158.29L702.7 166.522H695.452ZM710.079 172.642H712.383V154.834H710.079V172.642ZM716.782 172.642H719.086V154.834H716.782V172.642ZM732.138 162.058V159.922H729.93V172.642H732.234V166.306C732.234 163.522 733.77 162.01 736.242 162.01C736.41 162.01 736.578 162.01 736.77 162.034V159.802C734.538 159.802 732.954 160.57 732.138 162.058ZM740.762 157.474C741.674 157.474 742.322 156.802 742.322 155.938C742.322 155.122 741.65 154.474 740.762 154.474C739.874 154.474 739.202 155.146 739.202 155.986C739.202 156.826 739.874 157.474 740.762 157.474ZM739.61 172.642H741.914V159.922H739.61V172.642ZM756.297 159.922V161.89C755.217 160.498 753.489 159.802 751.593 159.802C747.921 159.802 745.137 162.274 745.137 165.946C745.137 169.618 747.921 172.114 751.593 172.114C753.417 172.114 755.073 171.466 756.177 170.146V171.154C756.177 174.034 754.809 175.426 751.809 175.426C749.937 175.426 748.089 174.778 746.913 173.77L745.809 175.546C747.201 176.794 749.553 177.442 751.881 177.442C756.201 177.442 758.481 175.402 758.481 170.914V159.922H756.297ZM751.857 170.098C749.289 170.098 747.465 168.394 747.465 165.946C747.465 163.474 749.289 161.818 751.857 161.818C754.401 161.818 756.225 163.474 756.225 165.946C756.225 168.394 754.401 170.098 751.857 170.098ZM769.675 159.802C767.731 159.802 766.147 160.498 765.187 161.722V154.834H762.883V172.642H765.187V166.09C765.187 163.33 766.771 161.866 769.219 161.866C771.403 161.866 772.651 163.09 772.651 165.586V172.642H774.955V165.322C774.955 161.578 772.771 159.802 769.675 159.802ZM785.651 170.242C785.171 170.626 784.523 170.842 783.851 170.842C782.579 170.842 781.859 170.074 781.859 168.706V161.818H785.507V159.922H781.859V157.138H779.555V159.922H777.395V161.818H779.555V168.802C779.555 171.37 781.019 172.786 783.587 172.786C784.619 172.786 785.675 172.498 786.371 171.898L785.651 170.242ZM792.805 172.786C796.189 172.786 798.301 171.322 798.301 169.018C798.301 164.074 790.237 166.522 790.237 163.522C790.237 162.514 791.221 161.77 793.237 161.77C794.485 161.77 795.757 162.034 796.909 162.778L797.893 160.954C796.789 160.234 794.917 159.802 793.261 159.802C789.997 159.802 787.957 161.338 787.957 163.618C787.957 168.682 795.997 166.21 795.997 169.066C795.997 170.146 795.109 170.794 792.973 170.794C791.317 170.794 789.589 170.242 788.509 169.474L787.549 171.298C788.605 172.138 790.693 172.786 792.805 172.786ZM809.833 162.058V159.922H807.625V172.642H809.929V166.306C809.929 163.522 811.465 162.01 813.937 162.01C814.105 162.01 814.273 162.01 814.465 162.034V159.802C812.233 159.802 810.649 160.57 809.833 162.058ZM828.684 166.354C828.684 162.442 826.068 159.802 822.396 159.802C818.724 159.802 816.012 162.514 816.012 166.282C816.012 170.074 818.748 172.786 822.852 172.786C824.964 172.786 826.716 172.066 827.868 170.722L826.596 169.234C825.66 170.266 824.412 170.77 822.924 170.77C820.404 170.77 818.604 169.282 818.316 167.05H828.636C828.66 166.834 828.684 166.546 828.684 166.354ZM822.396 161.746C824.628 161.746 826.236 163.258 826.476 165.394H818.316C818.556 163.234 820.188 161.746 822.396 161.746ZM835.531 172.786C838.915 172.786 841.027 171.322 841.027 169.018C841.027 164.074 832.963 166.522 832.963 163.522C832.963 162.514 833.947 161.77 835.963 161.77C837.211 161.77 838.483 162.034 839.635 162.778L840.619 160.954C839.515 160.234 837.643 159.802 835.987 159.802C832.723 159.802 830.683 161.338 830.683 163.618C830.683 168.682 838.723 166.21 838.723 169.066C838.723 170.146 837.835 170.794 835.699 170.794C834.043 170.794 832.315 170.242 831.235 169.474L830.275 171.298C831.331 172.138 833.419 172.786 835.531 172.786ZM855.403 166.354C855.403 162.442 852.787 159.802 849.115 159.802C845.443 159.802 842.731 162.514 842.731 166.282C842.731 170.074 845.467 172.786 849.571 172.786C851.683 172.786 853.435 172.066 854.587 170.722L853.315 169.234C852.379 170.266 851.131 170.77 849.643 170.77C847.123 170.77 845.323 169.282 845.035 167.05H855.355C855.379 166.834 855.403 166.546 855.403 166.354ZM849.115 161.746C851.347 161.746 852.955 163.258 853.195 165.394H845.035C845.275 163.234 846.907 161.746 849.115 161.746ZM860.81 162.058V159.922H858.602V172.642H860.906V166.306C860.906 163.522 862.442 162.01 864.914 162.01C865.082 162.01 865.25 162.01 865.442 162.034V159.802C863.21 159.802 861.626 160.57 860.81 162.058ZM877.797 159.922L873.333 170.122L868.965 159.922H866.565L872.133 172.642H874.485L880.053 159.922H877.797ZM893.348 166.354C893.348 162.442 890.732 159.802 887.06 159.802C883.388 159.802 880.676 162.514 880.676 166.282C880.676 170.074 883.412 172.786 887.516 172.786C889.628 172.786 891.38 172.066 892.532 170.722L891.26 169.234C890.324 170.266 889.076 170.77 887.588 170.77C885.068 170.77 883.268 169.282 882.98 167.05H893.3C893.324 166.834 893.348 166.546 893.348 166.354ZM887.06 161.746C889.292 161.746 890.9 163.258 891.14 165.394H882.98C883.22 163.234 884.852 161.746 887.06 161.746ZM906.243 154.834V161.842C905.187 160.474 903.603 159.802 901.803 159.802C898.083 159.802 895.371 162.394 895.371 166.282C895.371 170.17 898.083 172.786 901.803 172.786C903.675 172.786 905.307 172.066 906.339 170.626V172.642H908.547V154.834H906.243ZM901.995 170.77C899.547 170.77 897.699 168.994 897.699 166.282C897.699 163.57 899.547 161.818 901.995 161.818C904.419 161.818 906.267 163.57 906.267 166.282C906.267 168.994 904.419 170.77 901.995 170.77Z" fill="white"/>
</svg>
